<svg
  x="0px"
  y="0px"
  id="Layer_1"
  class="scene"
  version="1.1"
  viewBox="0 0 700 700"
  xmlns="http://www.w3.org/2000/svg"
  xmlns:pathdata="http://www.codrops.com/">
<path fill="#B5D6E5" d="M489.1,114c-46.3-35.3-81.3-44.2-135.9-44.2c-68.4,0-99.9,50.7-152.7,88c-54.7,38.7-71.9,73.9-92.8,138
	c-36.2,111-6.9,208.2,92.6,263.5c46.5,25.8,126.6,24.6,177.5,26.5c60,2.2,94-4.4,143.2-42.1c42.9-32.9,63.9-68.4,79.4-120.1
	c21.3-70.7-12.7-119.5-30.5-186.6C555.6,183.5,535.9,149.7,489.1,114z"
pathdata:id="M500.2,162.3c-46.3-35.3-76.3-45-131-45c-68.4,0-118.3,5.7-171,43c-54.7,38.7-88.4,70.8-92.8,138
	c-7.2,111-32.7,221.7,66.8,277c46.5,25.8,152.1,11.1,203,13c60,2.2,94.4-4.3,143.5-42c42.9-32.9,43.9-68.3,59.5-120
	c21.3-70.7,7.3-119.5-10.6-186.6C553.3,186,547,198,500.2,162.3z"/>
<path fill="#B5C1E5" d="M455.5,191.8c-45.1-32.1-100.7-40.1-153.2-32.6c-44.2,6.3-86.9,69.3-114.6,103.5
	c-33.3,41.1-41.5,110-23.7,158.7c21.3,58.3,26.9,96.6,78.1,126.5c52.6,30.7,129.5,26.8,192.5,14c45.7-9.3,72.9-49.6,88.1-94.5
	c7.5-21.9,12.5-46.4,17.3-69c6.3-29.7,6.9-60.2,1.3-90.7C527.9,235.2,487.9,214.9,455.5,191.8z" pathdata:id="M450.2,192.3c-45.1-32.1-101.3-33-153.8-25.5c-44.2,6.3-90.2,37.5-127.2,69.5c-40,34.6-15.8,142.3,2,191
  	c21.3,58.3,32,60,75,87c51.6,32.4,127,37.8,190,25c45.7-9.3,44-53,81.7-91.4c16.2-16.5,12.5-46.4,17.3-69
  	c6.3-29.7,6.9-60.2,1.3-90.7C523,215.7,482.6,215.4,450.2,192.3z"/>
<path fill="#C0ABD2" d="M444,238.3c-15.1-13.8-35.8-29-54.8-36.2c-57.2-21.8-79.9,0.7-121.1,24.7c-39.5,23-50.2,53-65.4,90.7
	c-14.2,35.2-9.2,72.6,5.8,107.8c14.3,33.6,56.8,67.8,92,76.5c46.3,11.5,75,5.7,113.5-17.5c39.7-23.9,57.8-35,75.6-80.6
	c14.3-36.8,26.7-90,2.2-123C480.1,265.1,458.3,251.4,444,238.3z" pathdata:id="M447.7,240.8c-15.1-13.7-33.5-18.3-52.5-25.5c-57.2-21.8-82.3-10-123.4,14c-39.5,23-57.4,33.3-72.6,71
  	c-14.2,35.2,13.1,89.8,28,125c14.3,33.6,52.8,75.3,88,84c46.3,11.5,68.5-11.8,107-35c39.7-23.9,53.3-22.5,71.1-68.1
  	c14.3-36.8,19.5-90-5.1-122.9C476.5,267.6,462,253.9,447.7,240.8z"/>
</svg>
