<svg
  x="0px"
  y="0px"
  id="Layer_1"
  class="scene"
  version="1.1"
  baseProfile="basic"
  viewBox="0 0 1366 768"
  xmlns="http://www.w3.org/2000/svg"
  xmlns:xlink="http://www.w3.org/1999/xlink"
  xmlns:pathdata="http://www.codrops.com/">
<path fill="#D7E5EF" d="M825.6,167.2c-46.3-35.3-81.3-44.2-135.9-44.2c-68.4,0-99.9,50.7-152.7,88c-54.7,38.7-71.9,73.9-92.8,138
C408,460,463,569.9,562.5,625.2c46.5,25.8,100.9,11.9,151.8,13.8c60,2.2,94-4.4,143.2-42.1c42.9-32.9,63.9-68.4,79.4-120.1
c21.3-70.7-12.7-119.5-30.5-186.6C892.1,236.7,872.4,202.9,825.6,167.2z"
pathdata:id="M839,213c-46.3-35.3-76.3-45-131-45c-68.4,0-118.3,5.7-171,43c-54.7,38.7-88.4,70.8-92.8,138
C437,460,411.5,570.7,511,626c46.5,25.8,152.1,11.1,203,13c60,2.2,94.4-4.3,143.5-42c42.9-32.9,43.9-68.3,59.5-120
c21.3-70.7,7.3-119.5-10.6-186.6C892.1,236.7,885.8,248.7,839,213z"/>
<path fill="#B5D6E5" d="M789.4,223c-45.1-32.1-101.7-13-154.2-5.5c-44.2,6.3-85.9,42.2-113.6,76.4c-33.3,41.1-41.5,110-23.7,158.7
c21.3,58.3,41.5,82.5,92.7,112.4c52.6,30.7,91.1,33.9,154.1,21.1c45.7-9.3,96.8-42.5,112-87.4c7.5-21.9,12.5-46.4,17.3-69
c6.3-29.7,6.9-60.2,1.3-90.7C861.8,266.4,821.8,246.1,789.4,223z" pathdata:id="M789.4,223c-45.1-32.1-100.7-40.1-153.2-32.6c-44.2,6.3-86.9,69.3-114.6,103.5
c-33.3,41.1-41.5,110-23.7,158.7c21.3,58.3,26.9,96.6,78.1,126.5c52.6,30.7,129.5,26.8,192.5,14c45.7-9.3,72.9-49.6,88.1-94.5
c7.5-21.9,12.5-46.4,17.3-69c6.3-29.7,6.9-60.2,1.3-90.7C861.8,266.4,821.8,246.1,789.4,223z"/>
<path fill="#C0ABD2" d="M786.5,291.5c-15.1-13.8-35.8-29-54.8-36.2c-57.2-21.8-79.9,0.7-121.1,24.7c-39.5,23-50.2,53-65.4,90.7
c-14.2,35.2-9.2,72.6,5.8,107.8c14.3,33.6,56.8,67.8,92,76.5c46.3,11.5,75,5.7,113.5-17.5c39.7-23.9,57.8-35,75.6-80.6
c14.3-36.8,13-86.3-11.5-119.3C808.9,322,800.8,304.6,786.5,291.5z" pathdata:id="M786.5,291.5c-15.1-13.8-35.8-29-54.8-36.2c-57.2-21.8-89.5-16.7-130.7,7.3c-39.5,23-40.6,70.4-55.8,108.1
c-14.2,35.2-9.2,72.6,5.8,107.8c14.3,33.6,58.3,56.8,93.5,65.5c46.3,11.5,73.5,16.7,112-6.5c39.7-23.9,57.8-35,75.6-80.6
c14.3-36.8,26.7-90,2.2-123C822.6,318.3,800.8,304.6,786.5,291.5z"/>
</svg>
