<svg class="scene-2" version="1.1" id="bg-left" xmlns="http://www.w3.org/2000/svg" xmlns:xlink="http://www.w3.org/1999/xlink" xmlns:pathdata="http://www.codrops.com/" x="0px" y="0px"
     viewBox="0 0 435 420" enable-background="new 0 0 435 420" xml:space="preserve">
  <path fill-rule="evenodd" clip-rule="evenodd" fill="#B5D6E5" d="M177,308.4c106.5-16,134.2-73.2,134.2-147.3S251.1,27,177,27
    C102.9,27,19,87.1,19,161.2S70.5,324.4,177,308.4z" pathdata:id="M187,294.4c106.5-16,134.2-73.2,134.2-147.3S268.1,27,194,27
      C119.9,27,29,73.1,29,147.2S80.5,310.4,187,294.4z"/>

  <path fill-rule="evenodd" clip-rule="evenodd" fill="#FEFDFD" d="M342.9,54.9c7.1,0,12.9-5.8,12.9-12.9S349.1,27,341.9,27
    S330,34.8,330,41.9S335.8,54.9,342.9,54.9z" pathdata:id="M370.9,82.9c7.1,0,12.9-5.8,12.9-12.9S377.1,55,369.9,55
      S358,62.8,358,69.9S363.8,82.9,370.9,82.9z"/>

  <path fill-rule="evenodd" clip-rule="evenodd" fill="#C0ABD2" d="M226.2,367c3.7,0,6,0.6,9.1,3c3.1,2.4,4.5,4.7,5.4,8.3
    c1.2,4.5,3.5,7.8,2,12.5c-1,3.5-2.4,5.8-5.3,8.1c-3.3,2.5-5.6,3-9.6,2.8c-3.4-0.1-7.1,0.8-10.2-0.9c-6.7-3.7-10.4-11.1-7.9-18.5
    c1.4-4.3,2.6-6.7,6.2-9.3C219.5,370.4,221.6,367,226.2,367z" pathdata:id="M192.2,351c3.7,0,6,0.6,9.1,3c3.1,2.4,4.5,4.7,5.4,8.3
      c1.2,4.5,3.5,7.8,2,12.5c-1,3.5-2.4,5.8-5.3,8.1c-3.3,2.5-5.6,3-9.6,2.8c-3.4-0.1-7.1,0.8-10.2-0.9c-6.7-3.7-10.4-11.1-7.9-18.5
      c1.4-4.3,2.6-6.7,6.2-9.3C185.5,354.4,187.6,351,192.2,351z"/>

  <path fill-rule="evenodd" clip-rule="evenodd" fill="#B5C1E5" d="M316.5,213.7c-38,25.5-50.8,58.2-30.9,92.7
    c19.9,34.4,65.9,31.8,95.6,21.6c29.7-10.2,44.5-62.9,24.6-97.4C385.9,196.2,354.5,188.2,316.5,213.7z" pathdata:id="M297.5,206.7c-38,25.5-40.4,56.9-20.5,91.3
      c19.9,34.4,55.5,33.2,85.1,22.9c29.7-10.2,44.5-62.9,24.6-97.4C366.9,189.2,335.5,181.2,297.5,206.7z"/>
</svg>
