<svg class="scene-3" version="1.1" id="bg-right" xmlns="http://www.w3.org/2000/svg" xmlns:xlink="http://www.w3.org/1999/xlink" xmlns:pathdata="http://www.codrops.com/" x="0px" y="0px"
		 viewBox="0 0 474 659" enable-background="new 0 0 474 659" xml:space="preserve">
	<path id="white" fill-rule="evenodd" clip-rule="evenodd" fill="#FEFDFD" d="M342.5,198c-37.2-25-62.7,9.5-78.2,46.1
		s3.7,73.8,40.3,89.3s77-2.3,92.6-38.9S379.7,223,342.5,198z" pathdata:id="M359,226c-37.2-25-68.2-7.5-83.7,29.1
			s3.7,73.8,40.3,89.3s77-2.3,92.6-38.9S396.2,251,359,226z"/>

	<path id="green" fill-rule="evenodd" clip-rule="evenodd" fill="#D7EFEA" d="M375.1,359C282.8,247.4,244.6,212,136.7,271.9
		S65,417.7,113,504.3s122.6,169.2,230.5,109.4C451.4,553.8,467.5,470.5,375.1,359z" pathdata:id="M375.1,348C282.8,236.4,256.9,215.2,149,275
			s-84,131.7-36,218.3s122.6,169.2,230.5,109.4C451.4,542.8,467.5,459.5,375.1,348z"/>

	<path id="purple" fill-rule="evenodd" clip-rule="evenodd" fill="#B5C1E5" d="M209.8,35.6c4.2,0,7.6-3.4,7.6-7.6s-4.5-8-8.7-8
		s-6.5,3.8-6.5,8S205.6,35.6,209.8,35.6z" pathdata:id="M221,44c4.2,0,7.4-0.8,7.4-5s-4.5-8-8.7-8
			s-6.5,3.8-6.5,8S216.8,44,221,44z"/>

	<path id="blue" fill-rule="evenodd" clip-rule="evenodd" fill="#B5D6E5" d="M77,83.4c16.2-9.4,34.7-16.8,53-4.5c6.7,4.5,17.3,7.8,23.2,13.2c5.6,5.1,7.1,13,11.7,19.1
		c9.6,12.9,10.1,32.4,4.5,46.8c-7,17.9-19.4,14.8-35,24.2c-15.1,9.1-23.1,20.3-41.3,15.8c-13.8-3.4-28.5-15.6-34.1-28.8
		c-5.9-13.8-7.8-31.3-2.2-45.1C62.9,109.3,61.5,92.4,77,83.4z" pathdata:id="M62.1,96.8c16.2-9.4,29.2-22,47.5-9.7
			c6.7,4.5,11.5,11.6,17.4,17c5.6,5.1,12.9,9.2,17.5,15.3c9.6,12.9,10.1,32.4,4.5,46.8c-7,17.9-16.9,22-32.5,31.4
			c-15.1,9.1-25.6,13.1-43.8,8.6c-13.8-3.4-28.5-15.6-34.1-28.8c-5.9-13.8-7.8-31.3-2.2-45.1C42.4,117.6,46.6,105.8,62.1,96.8z"/>
</svg>
